<mxfile host="app.diagrams.net" modified="2024-06-25T19:57:35.057Z" agent="Mozilla/5.0 (Macintosh; Intel Mac OS X 10_15_7) AppleWebKit/537.36 (KHTML, like Gecko) Chrome/126.0.0.0 Safari/537.36" etag="xvIkIFr1k6-LrcVNaIGM" version="24.6.3" type="device">
  <diagram name="Página-1" id="iRgMBZmcQ8N3P_1VjlgY">
    <mxGraphModel dx="954" dy="646" grid="1" gridSize="10" guides="1" tooltips="1" connect="1" arrows="1" fold="1" page="1" pageScale="1" pageWidth="827" pageHeight="1169" math="0" shadow="0">
      <root>
        <mxCell id="0" />
        <mxCell id="1" parent="0" />
        <mxCell id="-Q0_JGXljB0-hT06e8Z0-10" style="edgeStyle=orthogonalEdgeStyle;rounded=0;orthogonalLoop=1;jettySize=auto;html=1;exitX=0.5;exitY=1;exitDx=0;exitDy=0;entryX=0.5;entryY=0;entryDx=0;entryDy=0;labelBackgroundColor=none;strokeColor=#028090;fontColor=default;" edge="1" parent="1" source="-Q0_JGXljB0-hT06e8Z0-1" target="-Q0_JGXljB0-hT06e8Z0-11">
          <mxGeometry relative="1" as="geometry">
            <mxPoint x="420" y="150" as="targetPoint" />
          </mxGeometry>
        </mxCell>
        <mxCell id="-Q0_JGXljB0-hT06e8Z0-1" value="Início" style="rounded=1;whiteSpace=wrap;html=1;labelBackgroundColor=none;fillColor=#F45B69;strokeColor=#028090;fontColor=#E4FDE1;" vertex="1" parent="1">
          <mxGeometry x="360" y="70" width="120" height="50" as="geometry" />
        </mxCell>
        <mxCell id="-Q0_JGXljB0-hT06e8Z0-8" style="edgeStyle=orthogonalEdgeStyle;rounded=0;orthogonalLoop=1;jettySize=auto;html=1;entryX=0.5;entryY=0;entryDx=0;entryDy=0;labelBackgroundColor=none;strokeColor=#028090;fontColor=default;" edge="1" parent="1">
          <mxGeometry relative="1" as="geometry">
            <mxPoint x="420" y="250" as="sourcePoint" />
            <mxPoint x="420" y="250" as="targetPoint" />
          </mxGeometry>
        </mxCell>
        <mxCell id="-Q0_JGXljB0-hT06e8Z0-19" style="edgeStyle=orthogonalEdgeStyle;rounded=0;orthogonalLoop=1;jettySize=auto;html=1;labelBackgroundColor=none;strokeColor=#028090;fontColor=default;" edge="1" parent="1" source="-Q0_JGXljB0-hT06e8Z0-11" target="-Q0_JGXljB0-hT06e8Z0-51">
          <mxGeometry relative="1" as="geometry">
            <mxPoint x="420" y="280" as="targetPoint" />
          </mxGeometry>
        </mxCell>
        <mxCell id="-Q0_JGXljB0-hT06e8Z0-11" value="Fazer reserva no restaurante" style="rounded=0;whiteSpace=wrap;html=1;labelBackgroundColor=none;fillColor=#F45B69;strokeColor=#028090;fontColor=#E4FDE1;" vertex="1" parent="1">
          <mxGeometry x="360" y="170" width="120" height="60" as="geometry" />
        </mxCell>
        <mxCell id="-Q0_JGXljB0-hT06e8Z0-57" style="edgeStyle=orthogonalEdgeStyle;rounded=0;orthogonalLoop=1;jettySize=auto;html=1;strokeColor=#028090;fontColor=default;fillColor=#F45B69;labelBackgroundColor=none;entryX=0.5;entryY=0;entryDx=0;entryDy=0;" edge="1" parent="1" source="-Q0_JGXljB0-hT06e8Z0-51" target="-Q0_JGXljB0-hT06e8Z0-52">
          <mxGeometry relative="1" as="geometry">
            <mxPoint x="240" y="430" as="targetPoint" />
          </mxGeometry>
        </mxCell>
        <mxCell id="-Q0_JGXljB0-hT06e8Z0-62" value="Sim" style="edgeLabel;html=1;align=center;verticalAlign=middle;resizable=0;points=[];strokeColor=#028090;fontColor=#FF3333;fillColor=#F45B69;labelBackgroundColor=none;" vertex="1" connectable="0" parent="-Q0_JGXljB0-hT06e8Z0-57">
          <mxGeometry x="-0.5772" y="-1" relative="1" as="geometry">
            <mxPoint as="offset" />
          </mxGeometry>
        </mxCell>
        <mxCell id="-Q0_JGXljB0-hT06e8Z0-51" value="Há vagas disponíveis?" style="rhombus;whiteSpace=wrap;html=1;strokeColor=#028090;fontColor=#E4FDE1;fillColor=#F45B69;labelBackgroundColor=none;" vertex="1" parent="1">
          <mxGeometry x="335" y="290" width="170" height="100" as="geometry" />
        </mxCell>
        <mxCell id="-Q0_JGXljB0-hT06e8Z0-55" style="edgeStyle=orthogonalEdgeStyle;rounded=0;orthogonalLoop=1;jettySize=auto;html=1;strokeColor=#028090;fontColor=default;fillColor=#F45B69;labelBackgroundColor=none;" edge="1" parent="1">
          <mxGeometry relative="1" as="geometry">
            <mxPoint x="404" y="560" as="targetPoint" />
            <mxPoint x="290" y="470" as="sourcePoint" />
          </mxGeometry>
        </mxCell>
        <mxCell id="-Q0_JGXljB0-hT06e8Z0-52" value="Conduzir até o restaurante" style="rounded=0;whiteSpace=wrap;html=1;strokeColor=#028090;fontColor=#E4FDE1;fillColor=#F45B69;labelBackgroundColor=none;" vertex="1" parent="1">
          <mxGeometry x="180" y="440" width="120" height="60" as="geometry" />
        </mxCell>
        <mxCell id="-Q0_JGXljB0-hT06e8Z0-59" style="edgeStyle=orthogonalEdgeStyle;rounded=0;orthogonalLoop=1;jettySize=auto;html=1;strokeColor=#028090;fontColor=default;fillColor=#F45B69;labelBackgroundColor=none;entryX=0.633;entryY=0;entryDx=0;entryDy=0;entryPerimeter=0;" edge="1" parent="1" source="-Q0_JGXljB0-hT06e8Z0-53" target="-Q0_JGXljB0-hT06e8Z0-54">
          <mxGeometry relative="1" as="geometry">
            <mxPoint x="440" y="550" as="targetPoint" />
          </mxGeometry>
        </mxCell>
        <mxCell id="-Q0_JGXljB0-hT06e8Z0-53" value="Procurar outro destino" style="rounded=0;whiteSpace=wrap;html=1;strokeColor=#028090;fontColor=#E4FDE1;fillColor=#F45B69;labelBackgroundColor=none;" vertex="1" parent="1">
          <mxGeometry x="530" y="440" width="120" height="60" as="geometry" />
        </mxCell>
        <mxCell id="-Q0_JGXljB0-hT06e8Z0-60" style="edgeStyle=orthogonalEdgeStyle;rounded=0;orthogonalLoop=1;jettySize=auto;html=1;strokeColor=#028090;fontColor=default;fillColor=#F45B69;labelBackgroundColor=none;" edge="1" parent="1" source="-Q0_JGXljB0-hT06e8Z0-54">
          <mxGeometry relative="1" as="geometry">
            <mxPoint x="414" y="670" as="targetPoint" />
          </mxGeometry>
        </mxCell>
        <mxCell id="-Q0_JGXljB0-hT06e8Z0-54" value="Comer" style="rounded=0;whiteSpace=wrap;html=1;strokeColor=#028090;fontColor=#E4FDE1;fillColor=#F45B69;labelBackgroundColor=none;" vertex="1" parent="1">
          <mxGeometry x="354" y="560" width="120" height="60" as="geometry" />
        </mxCell>
        <mxCell id="-Q0_JGXljB0-hT06e8Z0-61" value="Fim" style="rounded=1;whiteSpace=wrap;html=1;strokeColor=#028090;fontColor=#E4FDE1;fillColor=#F45B69;labelBackgroundColor=none;" vertex="1" parent="1">
          <mxGeometry x="354" y="670" width="120" height="60" as="geometry" />
        </mxCell>
        <mxCell id="-Q0_JGXljB0-hT06e8Z0-65" style="edgeStyle=orthogonalEdgeStyle;rounded=0;orthogonalLoop=1;jettySize=auto;html=1;entryX=0.667;entryY=0;entryDx=0;entryDy=0;entryPerimeter=0;strokeColor=#028090;fontColor=#E4FDE1;fillColor=#F45B69;" edge="1" parent="1" source="-Q0_JGXljB0-hT06e8Z0-51" target="-Q0_JGXljB0-hT06e8Z0-53">
          <mxGeometry relative="1" as="geometry" />
        </mxCell>
        <mxCell id="-Q0_JGXljB0-hT06e8Z0-67" value="&lt;font color=&quot;#ff3333&quot;&gt;Não&lt;/font&gt;" style="edgeLabel;html=1;align=center;verticalAlign=middle;resizable=0;points=[];strokeColor=#028090;fontColor=#E4FDE1;fillColor=#F45B69;" vertex="1" connectable="0" parent="-Q0_JGXljB0-hT06e8Z0-65">
          <mxGeometry x="-0.4049" y="1" relative="1" as="geometry">
            <mxPoint as="offset" />
          </mxGeometry>
        </mxCell>
      </root>
    </mxGraphModel>
  </diagram>
</mxfile>
